HIERARCHY
ROOT hip
{
  OFFSET 0 0 0
  CHANNELS 6 Xposition Yposition Zposition Zrotation Yrotation Xrotation
  JOINT abdomen
  {
    OFFSET 0 20.6881 -0.73152
    CHANNELS 3 Zrotation Xrotation Yrotation
    JOINT chest
    {
      OFFSET 0 11.7043 -0.48768
      CHANNELS 3 Zrotation Xrotation Yrotation
      JOINT neck
      {
        OFFSET 0 22.1894 -2.19456
        CHANNELS 3 Zrotation Xrotation Yrotation
        JOINT head
        {
          OFFSET -0.24384 7.07133 1.2192
          CHANNELS 3 Zrotation Xrotation Yrotation
          JOINT leftEye
          {
            OFFSET 4.14528 8.04674 8.04672
            CHANNELS 3 Zrotation Xrotation Yrotation
            End Site
            {
              OFFSET 1 0 0
            }
          }
          JOINT rightEye
          {
            OFFSET -3.6576 8.04674 8.04672
            CHANNELS 3 Zrotation Xrotation Yrotation
            End Site
            {
              OFFSET 1 0 0
            }
          }
        }
      }
      JOINT rCollar
      {
        OFFSET -2.68224 19.2634 -4.8768
        CHANNELS 3 Zrotation Xrotation Yrotation
        JOINT rShldr
        {
          OFFSET -8.77824 -1.95073 1.46304
          CHANNELS 3 Zrotation Xrotation Yrotation
          JOINT rForeArm
          {
            OFFSET -28.1742 -1.7115 0.48768
            CHANNELS 3 Zrotation Xrotation Yrotation
            JOINT rHand
            {
              OFFSET -22.5879 0.773209 7.07136
              CHANNELS 3 Zrotation Xrotation Yrotation
              JOINT rThumb1
              {
                OFFSET -1.2192 -0.487915 3.41376
                CHANNELS 3 Zrotation Xrotation Yrotation
                JOINT rThumb2
                {
                  OFFSET -3.37035 -0.52449 3.41376
                  CHANNELS 3 Zrotation Xrotation Yrotation
                  End Site
                  {
                    OFFSET -1.78271 -1.18214 1.43049
                  }
                }
              }
              JOINT rIndex1
              {
                OFFSET -7.75947 0.938293 5.60832
                CHANNELS 3 Zrotation Xrotation Yrotation
                JOINT rIndex2
                {
                  OFFSET -2.54057 -0.884171 1.56538
                  CHANNELS 3 Zrotation Xrotation Yrotation
                  End Site
                  {
                    OFFSET -1.62519 -0.234802 1.16502
                  }
                }
              }
              JOINT rMid1
              {
                OFFSET -8.24714 1.18213 3.41376
                CHANNELS 3 Zrotation Xrotation Yrotation
                JOINT rMid2
                {
                  OFFSET -3.10165 -0.590103 1.0647
                  CHANNELS 3 Zrotation Xrotation Yrotation
                  End Site
                  {
                    OFFSET -2.48547 -0.328903 0.83742
                  }
                }
              }
              JOINT rRing1
              {
                OFFSET -8.82822 0.546677 1.51678
                CHANNELS 3 Zrotation Xrotation Yrotation
                JOINT rRing2
                {
                  OFFSET -2.60934 -0.819778 -0.0198488
                  CHANNELS 3 Zrotation Xrotation Yrotation
                  End Site
                  {
                    OFFSET -2.33842 -0.294052 0.168128
                  }
                }
              }
              JOINT rPinky1
              {
                OFFSET -8.27202 -0.0477905 -0.4584
                CHANNELS 3 Zrotation Xrotation Yrotation
                JOINT rPinky2
                {
                  OFFSET -1.82734 -0.647385 -0.700984
                  CHANNELS 3 Zrotation Xrotation Yrotation
                  End Site
                  {
                    OFFSET -1.69225 -0.51767 -0.607171
                  }
                }
              }
            }
          }
        }
      }
      JOINT lCollar
      {
        OFFSET 2.68224 19.2634 -4.8768
        CHANNELS 3 Zrotation Xrotation Yrotation
        JOINT lShldr
        {
          OFFSET 8.77824 -1.95073 1.46304
          CHANNELS 3 Zrotation Xrotation Yrotation
          JOINT lForeArm
          {
            OFFSET 28.1742 -1.7115 0.48768
            CHANNELS 3 Zrotation Xrotation Yrotation
            JOINT lHand
            {
              OFFSET 22.5879 0.773209 7.07136
              CHANNELS 3 Zrotation Xrotation Yrotation
              JOINT lThumb1
              {
                OFFSET 1.2192 -0.487915 3.41376
                CHANNELS 3 Zrotation Xrotation Yrotation
                JOINT lThumb2
                {
                  OFFSET 3.37035 -0.52449 3.41376
                  CHANNELS 3 Zrotation Xrotation Yrotation
                  End Site
                  {
                    OFFSET 1.78271 -1.18214 1.43049
                  }
                }
              }
              JOINT lIndex1
              {
                OFFSET 7.75947 0.938293 5.60832
                CHANNELS 3 Zrotation Xrotation Yrotation
                JOINT lIndex2
                {
                  OFFSET 2.54057 -0.884171 1.56538
                  CHANNELS 3 Zrotation Xrotation Yrotation
                  End Site
                  {
                    OFFSET 1.62519 -0.234802 1.16502
                  }
                }
              }
              JOINT lMid1
              {
                OFFSET 8.24714 1.18213 3.41376
                CHANNELS 3 Zrotation Xrotation Yrotation
                JOINT lMid2
                {
                  OFFSET 3.10165 -0.590103 1.0647
                  CHANNELS 3 Zrotation Xrotation Yrotation
                  End Site
                  {
                    OFFSET 2.48547 -0.328903 0.83742
                  }
                }
              }
              JOINT lRing1
              {
                OFFSET 8.82822 0.546677 1.51678
                CHANNELS 3 Zrotation Xrotation Yrotation
                JOINT lRing2
                {
                  OFFSET 2.60934 -0.819778 -0.0198488
                  CHANNELS 3 Zrotation Xrotation Yrotation
                  End Site
                  {
                    OFFSET 2.33842 -0.294052 0.168128
                  }
                }
              }
              JOINT lPinky1
              {
                OFFSET 8.27202 -0.0477905 -0.4584
                CHANNELS 3 Zrotation Xrotation Yrotation
                JOINT lPinky2
                {
                  OFFSET 1.82734 -0.647385 -0.700984
                  CHANNELS 3 Zrotation Xrotation Yrotation
                  End Site
                  {
                    OFFSET 1.69225 -0.51767 -0.607171
                  }
                }
              }
            }
          }
        }
      }
    }
  }
  JOINT rButtock
  {
    OFFSET -8.77824 4.35084 1.2192
    CHANNELS 3 Zrotation Xrotation Yrotation
    JOINT rThigh
    {
      OFFSET 0 -1.70687 -2.19456
      CHANNELS 3 Zrotation Xrotation Yrotation
      JOINT rShin
      {
        OFFSET 0 -36.8199 0.73152
        CHANNELS 3 Zrotation Xrotation Yrotation
        JOINT rFoot
        {
          OFFSET 0.73152 -45.1104 -5.12064
          CHANNELS 3 Zrotation Xrotation Yrotation
          End Site
          {
            OFFSET -1.1221 -3.69964 12.103
          }
        }
      }
    }
  }
  JOINT lButtock
  {
    OFFSET 8.77824 4.35084 1.2192
    CHANNELS 3 Zrotation Xrotation Yrotation
    JOINT lThigh
    {
      OFFSET 0 -1.70687 -2.19456
      CHANNELS 3 Zrotation Xrotation Yrotation
      JOINT lShin
      {
        OFFSET 0 -36.8199 0.73152
        CHANNELS 3 Zrotation Xrotation Yrotation
        JOINT lFoot
        {
          OFFSET -0.73152 -45.1104 -5.12064
          CHANNELS 3 Zrotation Xrotation Yrotation
          End Site
          {
            OFFSET 1.1221 -3.69964 12.103
          }
        }
      }
    }
  }
}
MOTION
Frames:	5
Frame Time:	0.00833333
0.786193 80.5237 -34.9474 -9.1699 1.9761 0.3138 9.35087 6.07275 2.37124 2.148 -5.05135 0.824444 7.23348 -9.23993 1.79335 -8.09634 -4.38351 0.101184 -0.0 0.0 0.0 -0.0 0.0 0.0 1.039e-13 2.90659e-14 5.53545e-14 74.6735 3.80189 8.74206 -9.49732 -3.84011 16.8645 -0.00257544 1.34139 0.188422 -2.04218e-09 2.23474e-09 -7.11411e-10 -3.53039e-09 3.86469e-09 -1.22538e-09 -2.04217e-09 2.23474e-09 -7.11421e-10 7.73091 5.47488 0.417314 -2.04219e-09 2.23475e-09 -7.11408e-10 2.90554 0.965183 0.102902 -2.04218e-09 2.23474e-09 -7.11408e-10 10.2786 0.731801 0.0259123 -2.04219e-09 2.23474e-09 -7.11401e-10 2.22167 -0.733487 -0.20892 1.03756e-13 2.90672e-14 5.50653e-14 -84.7631 15.1007 9.77079 17.9709 -10.6541 -33.9584 0.244272 -14.0435 2.01367 -2.13075e-09 -1.22991e-09 4.12742e-10 -3.68475e-09 -2.12174e-09 6.9208e-10 -2.13076e-09 -1.22991e-09 4.1275e-10 -7.73091 5.47488 -0.417314 -2.13075e-09 -1.22991e-09 4.12737e-10 -2.90554 0.965183 -0.102902 -2.13076e-09 -1.22991e-09 4.12741e-10 -10.2786 0.731801 -0.0259123 -2.13074e-09 -1.22991e-09 4.12735e-10 -2.22167 -0.733487 0.20892 -2.03217e-16 0.0 -3.88251e-19 9.03475 15.4576 0.111876 -0.0606374 16.3642 0.334263 -4.22967 -9.80404 -15.2281 2.03217e-16 0.0 3.88251e-19 11.5138 -41.6227 3.9569 0.207048 28.4705 0.00911298 1.76355 1.69868 20.0245
1.10022 80.595 -33.6118 -8.5227 1.4242 0.2749 8.31042 5.83377 2.48773 2.25679 -4.95241 0.837656 7.34441 -9.35311 1.86875 -7.81175 -3.78524 0.246006 -0.0 0.0 0.0 -0.0 0.0 0.0 6.8663e-14 2.28581e-14 1.04859e-14 75.3653 3.14083 8.32192 -9.41715 -3.79461 16.713 -0.00390525 1.78406 0.250815 -1.57743e-09 1.35379e-09 -7.20475e-10 -2.72713e-09 2.34095e-09 -1.24118e-09 -1.57743e-09 1.35379e-09 -7.20488e-10 7.73091 5.47488 0.417314 -1.57744e-09 1.35379e-09 -7.20475e-10 2.90554 0.965183 0.102902 -1.57743e-09 1.35379e-09 -7.20474e-10 10.2786 0.731801 0.0259123 -1.57744e-09 1.35379e-09 -7.20469e-10 2.22167 -0.733487 -0.20892 6.85029e-14 2.28614e-14 1.01877e-14 -84.9943 15.1204 10.3817 17.811 -10.485 -33.5977 0.286591 -15.0622 2.16752 -1.9922e-09 -8.57331e-10 2.52415e-10 -3.44473e-09 -1.47503e-09 4.14175e-10 -1.9922e-09 -8.5733e-10 2.52425e-10 -7.73091 5.47488 -0.417314 -1.9922e-09 -8.57335e-10 2.52412e-10 -2.90554 0.965183 -0.102902 -1.9922e-09 -8.57337e-10 2.52415e-10 -10.2786 0.731801 -0.0259123 -1.99219e-09 -8.57334e-10 2.52409e-10 -2.22167 -0.733487 0.20892 -2.03217e-16 0.0 -3.88251e-19 8.01106 15.5439 0.34776 -0.0710411 17.8016 0.354506 -3.92547 -8.93331 -14.8378 2.03217e-16 0.0 3.88251e-19 10.7321 -40.9371 3.92773 0.216091 28.8923 0.0199108 1.32462 2.92973 19.9883
1.39672 80.6807 -32.3284 -8.001 0.9074 0.3898 7.53873 5.38425 2.57706 2.26602 -4.8713 0.840284 7.45273 -9.39885 1.94111 -7.6535 -3.43582 0.36812 -0.0 0.0 0.0 -0.0 0.0 0.0 3.12447e-14 9.15746e-15 -7.1877e-15 75.9631 2.94557 7.88517 -9.38753 -3.77631 16.6595 -0.0058247 1.88099 0.264453 -8.96572e-10 6.42235e-10 -4.36096e-10 -1.54985e-09 1.11036e-09 -7.51121e-10 -8.96563e-10 6.42238e-10 -4.36106e-10 7.73091 5.47488 0.417314 -8.96577e-10 6.42239e-10 -4.36095e-10 2.90554 0.965183 0.102902 -8.96566e-10 6.42239e-10 -4.36095e-10 10.2786 0.731801 0.0259123 -8.9658e-10 6.42237e-10 -4.36089e-10 2.22167 -0.733487 -0.20892 3.10771e-14 9.16128e-15 -7.49403e-15 -85.1586 15.2193 10.9203 17.6296 -10.2931 -33.1964 0.317563 -15.7605 2.27391 -1.40672e-09 -5.70761e-10 8.19306e-11 -2.43218e-09 -9.80738e-10 1.25486e-10 -1.40673e-09 -5.70762e-10 8.19392e-11 -7.73091 5.47488 -0.417314 -1.40672e-09 -5.70766e-10 8.19265e-11 -2.90554 0.965183 -0.102902 -1.40673e-09 -5.70767e-10 8.19304e-11 -10.2786 0.731801 -0.0259123 -1.40671e-09 -5.70763e-10 8.19226e-11 -2.22167 -0.733487 0.20892 -2.03217e-16 0.0 -3.88251e-19 7.14992 15.1617 0.574964 -0.0830695 19.5216 0.374245 -3.56771 -7.88081 -14.3358 2.03217e-16 0.0 3.88251e-19 10.3419 -40.5963 4.25362 0.226597 29.4208 0.0307976 0.913103 4.06464 19.6647
1.67749 80.7748 -31.0982 -7.5787 0.4581 0.6033 6.9213 4.78154 2.64486 2.1965 -4.80031 0.833709 7.55367 -9.40577 2.01066 -7.55876 -3.23557 0.47733 -0.0 0.0 0.0 -0.0 0.0 0.0 -1.66046e-14 -1.10171e-14 -1.22159e-14 76.5086 3.14442 7.41328 -9.4182 -3.7935 16.7175 -0.00560458 1.66351 0.233842 1.96214e-11 -1.03413e-10 5.57389e-11 3.441e-11 -1.78989e-10 9.66889e-11 1.96278e-11 -1.03411e-10 5.57352e-11 7.73091 5.47488 0.417314 1.9617e-11 -1.0341e-10 5.5741e-11 2.90554 0.965183 0.102902 1.96265e-11 -1.03411e-10 5.57404e-11 10.2786 0.731801 0.0259123 1.96128e-11 -1.03412e-10 5.57476e-11 2.22167 -0.733487 -0.20892 -1.67737e-14 -1.10135e-14 -1.25296e-14 -85.2569 15.4333 11.4154 17.4331 -10.0862 -32.7686 0.340058 -16.266 2.3512 -4.79422e-10 -2.82903e-10 -1.16327e-10 -8.28793e-10 -4.8648e-10 -2.06576e-10 -4.79433e-10 -2.82907e-10 -1.1632e-10 -7.73091 5.47488 -0.417314 -4.79423e-10 -2.82908e-10 -1.16333e-10 -2.90554 0.965183 -0.102902 -4.79426e-10 -2.82908e-10 -1.16327e-10 -10.2786 0.731801 -0.0259123 -4.79412e-10 -2.82905e-10 -1.16338e-10 -2.22167 -0.733487 0.20892 -2.03217e-16 0.0 -3.88251e-19 6.36383 14.4344 0.796667 -0.0969975 21.4691 0.394621 -3.17355 -6.65874 -13.7464 2.03217e-16 0.0 3.88251e-19 10.1813 -40.4738 4.7845 0.238217 30.0281 0.041968 0.511064 5.20821 19.1242
1.93956 80.8736 -29.9138 -7.2278 0.079 0.8361 6.38873 4.18888 2.69876 2.10057 -4.75736 0.823925 7.64217 -9.37912 2.07572 -7.50254 -3.1227 0.57899 -0.0 0.0 0.0 -0.0 0.0 0.0 -6.09342e-14 -2.97623e-14 -1.05647e-14 76.9796 3.67429 6.91058 -9.5018 -3.84261 16.8726 -0.00356567 1.20564 0.169442 8.74685e-10 -7.18403e-10 5.43587e-10 1.51296e-09 -1.24225e-09 9.37699e-10 8.74689e-10 -7.18401e-10 5.4359e-10 7.73091 5.47488 0.417314 8.74682e-10 -7.18401e-10 5.43591e-10 2.90554 0.965183 0.102902 8.7469e-10 -7.18401e-10 5.43589e-10 10.2786 0.731801 0.0259123 8.74676e-10 -7.18401e-10 5.43598e-10 2.22167 -0.733487 -0.20892 -6.10965e-14 -2.97592e-14 -1.0878e-14 -85.3127 15.6646 11.8266 17.2016 -9.84896 -32.2623 0.347326 -16.4559 2.38001 4.42572e-10 -2.96435e-11 -2.82904e-10 7.65269e-10 -5.24435e-11 -4.83684e-10 4.42557e-10 -2.96502e-11 -2.829e-10 -7.73091 5.47488 -0.417314 4.42571e-10 -2.96482e-11 -2.82912e-10 -2.90554 0.965183 -0.102902 4.42567e-10 -2.96461e-11 -2.82906e-10 -10.2786 0.731801 -0.0259123 4.42582e-10 -2.96433e-11 -2.82918e-10 -2.22167 -0.733487 0.20892 -2.03217e-16 0.0 -3.88251e-19 5.62663 13.515 0.972203 -0.1145 23.5604 0.414342 -2.7415 -5.20519 -13.1001 2.03217e-16 0.0 3.88251e-19 10.1456 -40.3842 5.44942 0.24993 30.6692 0.0515952 0.188708 6.18685 18.4729
